<svg version="1.1" id="Layer_1" xmlns="http://www.w3.org/2000/svg" xmlns:xlink="http://www.w3.org/1999/xlink" x="0px" y="0px"
	 width="100%" viewBox="0 0 496 496" enable-background="new 0 0 496 496" xml:space="preserve">
<path fill="#000000" opacity="1.000000" stroke="none" 
	d="
M252.430084,416.310852 
	C252.201401,420.839874 252.201401,420.839874 250.587830,424.115082 
	C245.506226,420.189148 241.372025,415.406494 237.100281,410.820892 
	C206.443405,377.911102 175.657349,345.124115 144.414154,312.769409 
	C142.514343,310.802002 141.496155,309.094727 142.832291,306.225403 
	C152.598038,285.253723 160.595856,263.467224 171.829605,243.172729 
	C176.384369,234.944244 182.444031,227.901138 189.225845,221.409561 
	C191.015579,219.696426 192.227905,219.948380 193.911194,221.222076 
	C197.569733,223.990387 201.774155,225.464584 206.813126,225.817398 
	C187.462082,215.417007 176.061050,200.022598 175.586304,177.091324 
	C191.761230,175.080658 205.968521,180.703247 219.814453,187.591568 
	C221.291824,185.183868 219.696091,183.710938 218.992355,182.173935 
	C204.828644,151.239136 176.458389,139.773834 144.531174,151.689697 
	C128.496567,157.674118 115.441734,167.608383 104.084488,180.129486 
	C102.141350,182.271744 100.686119,185.022247 97.091064,186.572891 
	C96.592827,180.878815 98.417328,176.085175 99.648697,171.283234 
	C105.240601,149.476486 115.856628,130.370041 132.449219,115.163544 
	C149.562943,99.479469 169.851120,90.057053 193.171494,87.436371 
	C221.321472,84.272949 247.237183,90.392242 270.271210,106.722801 
	C294.713593,124.051849 307.889374,148.339569 311.355835,177.988953 
	C311.728760,181.178665 312.210632,184.202515 315.091034,186.335632 
	C328.777649,196.471481 334.810089,210.657852 336.109924,227.132294 
	C336.438202,231.292969 337.867828,234.846420 339.760254,238.388077 
	C345.485321,249.102615 352.224823,259.275543 356.953766,270.521576 
	C360.879852,279.858124 362.765411,289.576752 362.321747,299.717773 
	C362.074219,305.375214 359.936371,306.738403 355.118683,304.003723 
	C350.802765,301.553802 346.684082,298.756470 342.469391,296.106781 
	C342.893524,303.328247 347.366455,308.084900 354.441223,308.855499 
	C359.543060,309.411224 360.668549,311.335968 358.691284,316.123688 
	C355.509247,323.828644 345.767792,327.941223 335.244202,325.988586 
	C332.023041,325.390930 328.818054,324.705994 325.040558,323.947601 
	C325.989380,327.928802 328.873383,328.976379 331.347260,330.282715 
	C336.731476,333.125885 337.157745,334.139557 335.144012,339.590088 
	C331.745422,348.789215 332.950439,357.896057 335.912994,366.929260 
	C336.326172,368.188995 336.921173,369.388245 337.376160,370.635864 
	C337.474701,370.906067 337.332550,371.264069 337.239594,372.207428 
	C328.622955,370.580475 323.184296,364.660370 317.467529,357.904266 
	C317.061798,360.614502 317.520630,362.346741 318.333008,364.064148 
	C319.170105,365.833710 320.494141,367.414368 320.666504,370.220703 
	C312.119537,367.350403 305.262604,362.710693 299.913544,356.027618 
	C293.098816,347.513428 289.286987,337.587189 287.758179,326.864990 
	C286.341187,316.927124 282.192566,313.057556 272.033661,312.314026 
	C258.694489,311.337799 246.185883,307.808167 235.410645,299.424103 
	C227.897827,293.578461 223.125092,285.968689 220.690735,276.827698 
	C220.486053,276.059143 220.629639,275.115112 219.121246,274.704865 
	C218.831436,287.763245 223.692780,298.312347 233.340240,306.713806 
	C242.797272,314.949402 254.872955,316.551514 266.852295,319.059967 
	C265.237396,327.629211 263.441925,335.695160 262.238434,343.848511 
	C259.767639,360.587524 257.604736,377.372070 255.334213,394.140442 
	C254.353790,401.381165 253.420792,408.628357 252.430084,416.310852 
M260.539795,142.952438 
	C251.865921,131.718353 241.454834,122.611832 228.607758,116.341614 
	C210.670029,107.586830 191.788208,106.661537 172.535736,109.630516 
	C155.993088,112.181595 141.267929,118.683731 129.765976,131.329956 
	C128.222687,133.026779 126.381920,134.602798 125.718391,137.903809 
	C129.417358,135.568802 132.239563,133.514267 135.295471,131.902954 
	C153.751434,122.171509 173.414551,118.939140 194.154373,120.491241 
	C221.441101,122.533302 246.338974,141.331055 255.222900,167.226669 
	C258.534821,176.880554 258.534821,176.880569 268.517517,176.650757 
	C273.681610,176.531860 273.999786,175.946411 273.111938,170.607971 
	C271.429901,160.494080 266.740326,151.781006 260.539795,142.952438 
M234.705032,218.607910 
	C234.353348,217.865738 234.150864,216.991333 233.627747,216.401093 
	C224.771378,206.408096 213.879333,199.766632 200.843521,196.757141 
	C199.820953,196.521088 198.527847,196.314499 197.467331,197.884399 
	C204.635345,211.043503 215.413269,219.139587 230.577560,221.108047 
	C232.272614,221.328094 233.965256,221.370682 234.705032,218.607910 
M309.354187,233.682281 
	C309.517334,233.698898 309.705322,233.772736 309.836578,233.715805 
	C309.963959,233.660568 310.143158,233.430786 310.112213,233.346237 
	C307.534027,226.300461 305.332153,218.787231 297.448608,215.791779 
	C290.852386,213.285492 283.965149,214.063461 276.564850,215.001938 
	C279.295746,217.393845 281.667786,219.022751 283.462555,221.140808 
	C286.767761,225.041367 290.790344,227.081436 295.844421,227.618805 
	C300.757690,228.141174 304.977448,230.524109 309.354187,233.682281 
z"/>
</svg>