<svg version="1.1" id="Layer_1" xmlns="http://www.w3.org/2000/svg" xmlns:xlink="http://www.w3.org/1999/xlink" x="0px" y="0px"
	 width="100%" viewBox="0 0 500 500" enable-background="new 0 0 500 500" xml:space="preserve">

<path fill="#F4F4F4" opacity="1.000000" stroke="none" 
	d="
M279.638123,306.242706 
	C278.028137,308.999084 276.836517,311.693665 274.910339,313.673615 
	C269.233948,319.508514 269.694275,326.942535 269.228882,334.081726 
	C268.774689,341.049622 268.861603,348.051758 268.618408,355.035614 
	C268.580444,356.125427 268.390656,357.555786 267.692322,358.221954 
	C262.206177,363.455444 256.579102,368.541168 250.857300,373.799377 
	C245.103485,368.441620 239.612045,363.465057 234.329926,358.275391 
	C233.445709,357.406647 233.181641,355.626648 233.119858,354.245850 
	C232.689453,344.629059 232.565048,334.994843 231.934067,325.393036 
	C231.751709,322.617798 230.916077,319.356384 229.197769,317.310913 
	C224.174149,311.330872 223.103729,303.609619 219.445862,297.126953 
	C214.250214,287.918976 208.332794,279.120270 203.034576,269.966766 
	C201.715302,267.687531 201.151810,264.742310 201.004349,262.061218 
	C200.702820,256.578461 200.796021,251.063568 200.959106,245.568802 
	C201.106476,240.603134 199.341217,237.857529 194.092087,236.686813 
	C186.382309,234.967300 178.853867,232.407959 171.298721,230.044815 
	C169.810974,229.579468 168.115570,228.689606 167.257065,227.472672 
	C160.269333,217.567459 153.457916,207.537872 146.129929,196.872406 
	C156.563690,197.406387 166.108185,198.517914 175.608459,198.219803 
	C186.909195,197.865219 192.432007,206.456268 199.908447,212.133759 
	C201.078461,213.022247 202.129868,214.066895 203.628830,215.384537 
	C206.064117,208.923630 208.601730,203.373657 205.078690,196.398468 
	C200.948029,188.220276 199.089417,178.834885 194.573578,170.927902 
	C190.205048,163.278885 184.463165,156.027802 177.982285,150.059402 
	C167.452057,140.361832 155.832428,131.846344 144.653519,122.855675 
	C143.842224,122.203186 142.875916,121.743439 142.293365,120.147537 
	C147.438766,121.158310 152.597488,122.106300 157.726166,123.195755 
	C164.145340,124.559357 170.476151,126.590553 176.959930,127.339714 
	C186.706894,128.465912 193.534286,134.938858 201.624420,139.197098 
	C219.182877,148.439026 225.905396,166.297394 236.153076,181.310394 
	C239.832306,186.700485 245.198120,190.213226 250.506393,190.524597 
	C254.768204,190.774597 260.633606,187.029129 263.495819,183.298508 
	C271.221191,173.229187 277.391479,161.979446 284.879150,151.708633 
	C287.742096,147.781494 292.373199,145.054810 296.440491,142.115875 
	C301.922516,138.154678 307.485840,134.255249 313.321167,130.856155 
	C316.044006,129.270096 319.455414,128.785706 322.610504,128.037064 
	C332.851685,125.607018 343.110626,123.249794 353.385040,120.964920 
	C354.771606,120.656570 356.285889,120.922478 358.247589,121.893044 
	C352.875214,126.293533 347.555481,130.760223 342.119629,135.080826 
	C330.521454,144.299438 318.069489,152.803894 310.520599,165.945953 
	C305.953705,173.896606 302.831909,182.678238 299.084167,191.096909 
	C298.750061,191.847488 298.746582,192.773697 298.322723,193.451492 
	C293.992157,200.376434 293.702545,207.321594 298.560974,214.888382 
	C301.986298,212.044159 306.054871,209.647339 308.777435,206.190460 
	C313.677063,199.969452 320.111328,198.459808 327.335602,198.158661 
	C336.421265,197.779907 345.503754,197.325394 355.383759,196.866623 
	C349.873962,205.160339 343.989685,212.575195 339.709930,220.822693 
	C334.280640,231.285477 323.891541,231.510880 314.892120,234.759506 
	C310.409149,236.377792 305.749237,237.505997 301.085785,238.880524 
	C301.085785,245.056595 300.506866,250.955795 301.226227,256.692200 
	C302.218231,264.602417 298.916992,270.749176 294.943481,276.944092 
	C290.217834,284.311676 285.547455,291.722473 281.149780,299.287079 
	C280.078308,301.130157 280.166077,303.647217 279.638123,306.242706 
M235.146912,269.078705 
	C235.693558,272.977814 236.342499,276.865936 236.761948,280.778656 
	C237.334885,286.123322 244.787903,294.889191 250.124695,296.278503 
	C250.425095,296.356720 250.753235,296.378906 251.064026,296.358795 
	C254.189133,296.156647 264.247223,286.743225 264.750458,283.372803 
	C266.258057,273.275848 267.649048,263.161560 269.130432,253.060623 
	C269.713470,249.085190 268.643036,246.217651 264.871979,244.094635 
	C261.006500,241.918442 257.674652,238.801086 253.832092,236.573898 
	C252.412109,235.750854 249.746368,235.542053 248.435837,236.342178 
	C243.806870,239.168320 239.396393,242.401627 235.177124,245.818924 
	C233.939163,246.821564 232.895752,248.991364 232.992340,250.550079 
	C233.358322,256.457001 234.228683,262.332642 235.146912,269.078705 
M290.323608,213.204163 
	C289.140564,207.787292 286.565887,203.554657 281.205475,201.163452 
	C278.365387,199.896530 275.626953,198.146606 273.260742,196.125290 
	C268.227844,191.825897 263.561005,191.409470 257.990417,195.449539 
	C255.433044,197.304276 253.985550,198.700348 254.098999,202.001633 
	C254.349854,209.301758 253.929398,216.629990 254.327225,223.917023 
	C254.448837,226.144562 255.827057,228.878082 257.525818,230.335358 
	C262.296936,234.428192 267.534912,237.976791 272.667114,241.798370 
	C276.988617,237.662872 281.052887,233.231415 285.676758,229.491913 
	C290.939362,225.235794 295.017792,221.049927 290.323608,213.204163 
M217.748123,203.207779 
	C210.791489,207.465790 211.740997,215.442444 209.132446,221.738022 
	C208.956390,222.162888 209.809082,223.180466 210.375504,223.720993 
	C216.609512,229.670059 222.881683,235.579163 229.266663,241.615524 
	C234.550507,237.773651 239.844925,234.196442 244.777374,230.175232 
	C246.299530,228.934296 247.603683,226.515945 247.686661,224.580063 
	C248.014389,216.934235 247.845947,209.265762 247.805283,201.605972 
	C247.776306,196.147263 237.890305,190.302505 233.293152,193.135452 
	C228.245605,196.245941 223.371704,199.638199 217.748123,203.207779 
M169.881836,219.682098 
	C171.512390,221.176285 172.903214,223.247986 174.823196,224.045029 
	C178.881012,225.729568 183.196884,226.812973 187.441620,228.020966 
	C191.486206,229.172012 195.574951,230.167953 201.410843,231.694061 
	C199.980179,226.676086 199.911713,222.132507 197.645309,219.436951 
	C193.669800,214.708588 188.378159,211.075653 183.562195,207.074860 
	C182.635361,206.304901 181.385147,205.544006 180.243286,205.477203 
	C174.476685,205.139847 168.697281,204.997391 162.920471,204.880615 
	C161.931519,204.860626 160.933334,205.295959 159.946152,205.519424 
	C163.321640,210.265320 166.437271,214.645844 169.881836,219.682098 
M333.705658,217.165802 
	C336.272888,213.277695 338.840088,209.389572 341.472931,205.402084 
	C334.373840,205.402084 327.798828,205.318100 321.229889,205.480438 
	C320.063477,205.509262 318.752869,206.364166 317.799591,207.178131 
	C314.156769,210.288574 310.930389,213.980759 306.992401,216.628662 
	C301.515503,220.311340 301.097137,225.175354 302.302063,231.411835 
	C309.080048,229.368576 315.719635,226.995926 322.544891,225.434967 
	C327.406158,224.323196 330.946106,222.061829 333.705658,217.165802 
M221.095001,271.289429 
	C222.903183,278.795929 224.711349,286.302399 226.874680,295.283295 
	C228.628769,291.418274 230.820724,288.879211 230.677338,286.479706 
	C230.227005,278.944122 228.923691,271.457428 227.868073,263.963409 
	C227.766907,263.245148 227.244141,262.395477 226.655151,261.966156 
	C220.495239,257.476013 214.281799,253.059311 207.780228,248.405411 
	C206.101074,262.548065 207.610031,268.125610 215.358658,275.795868 
	C214.900070,271.024689 214.508255,266.948090 214.116440,262.871490 
	C214.502808,262.650757 214.889191,262.430023 215.275574,262.209290 
	C217.200363,264.965302 219.125153,267.721313 221.095001,271.289429 
M291.838837,250.048416 
	C286.712891,253.655380 281.527802,257.183044 276.505157,260.928436 
	C275.336761,261.799713 274.228516,263.311523 273.944275,264.702606 
	C273.121613,268.728973 272.287323,272.843475 272.283661,276.924133 
	C272.278870,282.273041 268.544373,288.338135 275.025574,293.032928 
	C275.697144,291.468384 276.565430,290.045349 276.923767,288.503815 
	C278.264374,282.736298 279.809784,276.977417 280.556793,271.123199 
	C281.154541,266.438751 284.674438,265.259796 287.823761,262.802460 
	C287.416992,267.187225 287.061584,271.018524 286.619690,275.781921 
	C294.247070,268.566956 295.572845,260.636810 294.606750,252.106735 
	C294.502136,251.183105 293.193268,250.395874 291.838837,250.048416 
M229.002670,182.501663 
	C227.273804,179.861725 225.544937,177.221786 223.791229,174.543930 
	C218.252838,178.472412 213.184357,182.067581 207.953537,185.777924 
	C209.628922,189.842438 211.226440,193.718063 213.053879,198.151474 
	C219.478073,194.065628 225.215622,190.416504 230.954865,186.766296 
	C230.381836,185.457977 229.876053,184.303207 229.002670,182.501663 
M289.874756,182.775711 
	C285.974792,180.155991 282.074860,177.536285 277.728943,174.616989 
	C275.125153,178.692200 272.639771,182.582092 270.110321,186.541000 
	C272.378540,187.792038 274.276184,188.760803 276.093506,189.862091 
	C278.050903,191.048264 279.949280,192.334702 281.845276,193.618912 
	C290.671967,199.597580 288.782043,197.918030 292.065277,190.285263 
	C293.221039,187.598450 294.076843,184.896027 289.874756,182.775711 
M244.197540,300.494659 
	C241.321884,298.303619 238.446228,296.112579 235.304520,293.718811 
	C233.022919,297.339691 230.867172,300.760864 229.002625,303.719879 
	C232.789642,312.054962 236.786453,319.488525 247.831253,315.235840 
	C247.831253,312.520325 247.702484,309.711792 247.868225,306.920776 
	C248.027145,304.244507 247.680862,301.992157 244.197540,300.494659 
M294.185272,160.237167 
	C292.732391,158.941696 291.279510,157.646225 289.677887,156.218109 
	C286.860870,160.570145 284.230255,164.634216 281.447144,168.933853 
	C286.552094,172.433975 291.247070,175.653015 295.941986,178.872025 
	C302.522675,169.264099 302.345734,167.029251 294.185272,160.237167 
M268.162048,296.428101 
	C267.457275,294.839050 266.767456,293.462677 264.710693,295.093109 
	C261.769684,297.424530 258.664001,299.550415 255.759171,301.923767 
	C254.983719,302.557343 254.284531,303.752930 254.236465,304.724396 
	C254.057846,308.334442 254.165237,311.958618 254.165237,315.208405 
	C265.839417,319.798309 268.806885,310.892059 273.060883,303.910706 
	C271.563873,301.630707 270.057434,299.336304 268.162048,296.428101 
M203.268234,174.087677 
	C204.039581,175.651566 204.810928,177.215469 205.757965,179.135590 
	C210.878357,175.475204 215.576813,172.116440 220.347000,168.706421 
	C217.343964,164.311096 214.686646,160.421768 211.848801,156.268234 
	C209.228256,158.686295 207.267624,160.942963 204.887360,162.595047 
	C200.453659,165.672424 200.230804,169.186050 203.268234,174.087677 
M239.947891,345.691589 
	C238.963593,352.478271 240.910233,357.707916 247.850250,360.560120 
	C247.850250,355.387909 247.401688,350.376923 247.964203,345.482117 
	C248.661728,339.412354 247.298981,335.339325 240.629349,334.487976 
	C240.334396,334.450317 240.020325,334.562561 239.006287,334.703552 
	C239.322800,338.045380 239.641693,341.412384 239.947891,345.691589 
M205.889435,150.832474 
	C201.758011,147.973022 197.626587,145.113556 193.597748,142.325119 
	C185.565399,151.043488 186.888809,148.031509 192.457184,156.201309 
	C193.554871,157.811783 195.023422,159.169495 196.875336,161.273727 
	C200.029602,157.967224 203.109497,154.738678 205.889435,150.832474 
M259.350372,356.608948 
	C260.170197,355.811340 261.676971,355.034027 261.701233,354.212921 
	C261.895660,347.636047 261.809845,341.050934 261.809845,333.697845 
	C259.072235,335.464905 254.727310,336.827271 254.520767,338.656860 
	C253.704498,345.887482 254.185669,353.264587 254.185669,360.587372 
	C254.571625,360.759308 254.957596,360.931213 255.343552,361.103149 
	C256.468048,359.752747 257.592529,358.402313 259.350372,356.608948 
M301.469727,146.957565 
	C299.457062,148.360352 297.444397,149.763123 295.854523,150.871231 
	C298.841736,154.512924 301.643158,157.928131 304.733398,161.695435 
	C308.392609,157.004684 311.293976,153.285431 314.325134,149.399780 
	C312.360535,146.961380 310.531433,144.691147 308.506622,142.177979 
	C306.165894,143.825806 304.156647,145.240250 301.469727,146.957565 
M255.180206,329.818634 
	C258.414093,327.606293 263.779510,328.428680 265.187469,322.705353 
	C260.160797,322.705353 255.521042,322.705353 250.881287,322.705353 
	C246.212051,322.705353 241.542831,322.705353 236.377213,322.705353 
	C239.604309,328.011993 249.081329,331.443176 255.180206,329.818634 
M280.340149,243.874496 
	C277.311157,245.800568 275.305298,248.201355 276.299194,252.597809 
	C280.894135,249.453873 284.853302,246.065277 289.378967,243.817139 
	C295.287842,240.881851 295.289276,236.398453 294.260773,230.313309 
	C289.482117,234.970551 285.171417,239.171738 280.340149,243.874496 
M215.099197,245.385330 
	C218.389328,247.670380 221.679443,249.955429 224.969574,252.240479 
	C225.464417,251.728195 225.959259,251.215927 226.454102,250.703644 
	C222.198288,242.478210 214.152649,237.564789 207.894409,230.544846 
	C205.596130,238.074661 208.400421,242.352570 215.099197,245.385330 
M176.057205,139.492722 
	C178.224716,141.139893 180.392227,142.787079 182.696426,144.538132 
	C184.476028,142.360260 185.890350,140.629410 187.284668,138.923035 
	C183.269211,135.021042 174.275055,132.774292 170.138916,134.580551 
	C171.968048,136.096069 173.738968,137.563354 176.057205,139.492722 
M319.932648,135.066940 
	C318.037750,136.126389 316.142822,137.185852 313.923096,138.426926 
	C316.110138,140.907333 317.782104,142.803528 319.557281,144.816849 
	C324.001068,140.999802 328.111298,137.469238 332.221558,133.938675 
	C332.062256,133.682281 331.902954,133.425888 331.743652,133.169479 
	C328.083099,133.798553 324.422516,134.427643 319.932648,135.066940 
z"/>
<path fill="#030303" opacity="1.000000" stroke="none" 
	d="
M235.028656,268.649353 
	C234.228683,262.332642 233.358322,256.457001 232.992340,250.550079 
	C232.895752,248.991364 233.939163,246.821564 235.177124,245.818924 
	C239.396393,242.401627 243.806870,239.168320 248.435837,236.342178 
	C249.746368,235.542053 252.412109,235.750854 253.832092,236.573898 
	C257.674652,238.801086 261.006500,241.918442 264.871979,244.094635 
	C268.643036,246.217651 269.713470,249.085190 269.130432,253.060623 
	C267.649048,263.161560 266.258057,273.275848 264.750458,283.372803 
	C264.247223,286.743225 254.189133,296.156647 251.064026,296.358795 
	C250.753235,296.378906 250.425095,296.356720 250.124695,296.278503 
	C244.787903,294.889191 237.334885,286.123322 236.761948,280.778656 
	C236.342499,276.865936 235.693558,272.977814 235.028656,268.649353 
z"/>
<path fill="#040404" opacity="1.000000" stroke="none" 
	d="
M290.486145,213.561783 
	C295.017792,221.049927 290.939362,225.235794 285.676758,229.491913 
	C281.052887,233.231415 276.988617,237.662872 272.667114,241.798370 
	C267.534912,237.976791 262.296936,234.428192 257.525818,230.335358 
	C255.827057,228.878082 254.448837,226.144562 254.327225,223.917023 
	C253.929398,216.629990 254.349854,209.301758 254.098999,202.001633 
	C253.985550,198.700348 255.433044,197.304276 257.990417,195.449539 
	C263.561005,191.409470 268.227844,191.825897 273.260742,196.125290 
	C275.626953,198.146606 278.365387,199.896530 281.205475,201.163452 
	C286.565887,203.554657 289.140564,207.787292 290.486145,213.561783 
z"/>
<path fill="#040404" opacity="1.000000" stroke="none" 
	d="
M218.085129,203.057739 
	C223.371704,199.638199 228.245605,196.245941 233.293152,193.135452 
	C237.890305,190.302505 247.776306,196.147263 247.805283,201.605972 
	C247.845947,209.265762 248.014389,216.934235 247.686661,224.580063 
	C247.603683,226.515945 246.299530,228.934296 244.777374,230.175232 
	C239.844925,234.196442 234.550507,237.773651 229.266663,241.615524 
	C222.881683,235.579163 216.609512,229.670059 210.375504,223.720993 
	C209.809082,223.180466 208.956390,222.162888 209.132446,221.738022 
	C211.740997,215.442444 210.791489,207.465790 218.085129,203.057739 
z"/>
<path fill="#060606" opacity="1.000000" stroke="none" 
	d="
M169.717377,219.354248 
	C166.437271,214.645844 163.321640,210.265320 159.946152,205.519424 
	C160.933334,205.295959 161.931519,204.860626 162.920471,204.880615 
	C168.697281,204.997391 174.476685,205.139847 180.243286,205.477203 
	C181.385147,205.544006 182.635361,206.304901 183.562195,207.074860 
	C188.378159,211.075653 193.669800,214.708588 197.645309,219.436951 
	C199.911713,222.132507 199.980179,226.676086 201.410843,231.694061 
	C195.574951,230.167953 191.486206,229.172012 187.441620,228.020966 
	C183.196884,226.812973 178.881012,225.729568 174.823196,224.045029 
	C172.903214,223.247986 171.512390,221.176285 169.717377,219.354248 
z"/>
<path fill="#060606" opacity="1.000000" stroke="none" 
	d="
M333.498413,217.466492 
	C330.946106,222.061829 327.406158,224.323196 322.544891,225.434967 
	C315.719635,226.995926 309.080048,229.368576 302.302063,231.411835 
	C301.097137,225.175354 301.515503,220.311340 306.992401,216.628662 
	C310.930389,213.980759 314.156769,210.288574 317.799591,207.178131 
	C318.752869,206.364166 320.063477,205.509262 321.229889,205.480438 
	C327.798828,205.318100 334.373840,205.402084 341.472931,205.402084 
	C338.840088,209.389572 336.272888,213.277695 333.498413,217.466492 
z"/>
<path fill="#0D0D0D" opacity="1.000000" stroke="none" 
	d="
M221.072479,270.883392 
	C219.125153,267.721313 217.200363,264.965302 215.275574,262.209290 
	C214.889191,262.430023 214.502808,262.650757 214.116440,262.871490 
	C214.508255,266.948090 214.900070,271.024689 215.358658,275.795868 
	C207.610031,268.125610 206.101074,262.548065 207.780228,248.405411 
	C214.281799,253.059311 220.495239,257.476013 226.655151,261.966156 
	C227.244141,262.395477 227.766907,263.245148 227.868073,263.963409 
	C228.923691,271.457428 230.227005,278.944122 230.677338,286.479706 
	C230.820724,288.879211 228.628769,291.418274 226.874680,295.283295 
	C224.711349,286.302399 222.903183,278.795929 221.072479,270.883392 
z"/>
<path fill="#0C0C0C" opacity="1.000000" stroke="none" 
	d="
M292.140930,249.796906 
	C293.193268,250.395874 294.502136,251.183105 294.606750,252.106735 
	C295.572845,260.636810 294.247070,268.566956 286.619690,275.781921 
	C287.061584,271.018524 287.416992,267.187225 287.823761,262.802460 
	C284.674438,265.259796 281.154541,266.438751 280.556793,271.123199 
	C279.809784,276.977417 278.264374,282.736298 276.923767,288.503815 
	C276.565430,290.045349 275.697144,291.468384 275.025574,293.032928 
	C268.544373,288.338135 272.278870,282.273041 272.283661,276.924133 
	C272.287323,272.843475 273.121613,268.728973 273.944275,264.702606 
	C274.228516,263.311523 275.336761,261.799713 276.505157,260.928436 
	C281.527802,257.183044 286.712891,253.655380 292.140930,249.796906 
z"/>
<path fill="#080808" opacity="1.000000" stroke="none" 
	d="
M229.186478,182.825043 
	C229.876053,184.303207 230.381836,185.457977 230.954865,186.766296 
	C225.215622,190.416504 219.478073,194.065628 213.053879,198.151474 
	C211.226440,193.718063 209.628922,189.842438 207.953537,185.777924 
	C213.184357,182.067581 218.252838,178.472412 223.791229,174.543930 
	C225.544937,177.221786 227.273804,179.861725 229.186478,182.825043 
z"/>
<path fill="#060606" opacity="1.000000" stroke="none" 
	d="
M290.132996,183.055023 
	C294.076843,184.896027 293.221039,187.598450 292.065277,190.285263 
	C288.782043,197.918030 290.671967,199.597580 281.845276,193.618912 
	C279.949280,192.334702 278.050903,191.048264 276.093506,189.862091 
	C274.276184,188.760803 272.378540,187.792038 270.110321,186.541000 
	C272.639771,182.582092 275.125153,178.692200 277.728943,174.616989 
	C282.074860,177.536285 285.974792,180.155991 290.132996,183.055023 
z"/>
<path fill="#0A0A0A" opacity="1.000000" stroke="none" 
	d="
M244.512970,300.706848 
	C247.680862,301.992157 248.027145,304.244507 247.868225,306.920776 
	C247.702484,309.711792 247.831253,312.520325 247.831253,315.235840 
	C236.786453,319.488525 232.789642,312.054962 229.002625,303.719879 
	C230.867172,300.760864 233.022919,297.339691 235.304520,293.718811 
	C238.446228,296.112579 241.321884,298.303619 244.512970,300.706848 
M236.209305,305.155823 
	C238.475632,306.575409 240.741974,307.994995 243.008301,309.414551 
	C243.319687,308.985687 243.631088,308.556824 243.942474,308.127960 
	C241.603210,305.227448 239.263962,302.326935 236.924713,299.426422 
	C236.456253,299.515808 235.987793,299.605194 235.519333,299.694580 
	C235.519333,301.425751 235.519333,303.156952 236.209305,305.155823 
z"/>
<path fill="#090909" opacity="1.000000" stroke="none" 
	d="
M294.457611,160.482300 
	C302.345734,167.029251 302.522675,169.264099 295.941986,178.872025 
	C291.247070,175.653015 286.552094,172.433975 281.447144,168.933853 
	C284.230255,164.634216 286.860870,160.570145 289.677887,156.218109 
	C291.279510,157.646225 292.732391,158.941696 294.457611,160.482300 
z"/>
<path fill="#0A0A0A" opacity="1.000000" stroke="none" 
	d="
M268.356506,296.734985 
	C270.057434,299.336304 271.563873,301.630707 273.060883,303.910706 
	C268.806885,310.892059 265.839417,319.798309 254.165237,315.208405 
	C254.165237,311.958618 254.057846,308.334442 254.236465,304.724396 
	C254.284531,303.752930 254.983719,302.557343 255.759171,301.923767 
	C258.664001,299.550415 261.769684,297.424530 264.710693,295.093109 
	C266.767456,293.462677 267.457275,294.839050 268.356506,296.734985 
M265.627502,305.173096 
	C266.393494,304.576569 267.159485,303.980042 268.064819,303.274963 
	C267.024445,301.802917 266.067474,300.448853 265.083557,299.056671 
	C262.471283,302.366058 260.071136,305.406708 257.670990,308.447357 
	C257.986359,308.817474 258.301697,309.187592 258.617065,309.557678 
	C260.771942,308.259247 262.926819,306.960815 265.627502,305.173096 
z"/>
<path fill="#090909" opacity="1.000000" stroke="none" 
	d="
M203.150940,173.725555 
	C200.230804,169.186050 200.453659,165.672424 204.887360,162.595047 
	C207.267624,160.942963 209.228256,158.686295 211.848801,156.268234 
	C214.686646,160.421768 217.343964,164.311096 220.347000,168.706421 
	C215.576813,172.116440 210.878357,175.475204 205.757965,179.135590 
	C204.810928,177.215469 204.039581,175.651566 203.150940,173.725555 
z"/>
<path fill="#0F1010" opacity="1.000000" stroke="none" 
	d="
M239.954239,345.235474 
	C239.641693,341.412384 239.322800,338.045380 239.006287,334.703552 
	C240.020325,334.562561 240.334396,334.450317 240.629349,334.487976 
	C247.298981,335.339325 248.661728,339.412354 247.964203,345.482117 
	C247.401688,350.376923 247.850250,355.387909 247.850250,360.560120 
	C240.910233,357.707916 238.963593,352.478271 239.954239,345.235474 
z"/>
<path fill="#080808" opacity="1.000000" stroke="none" 
	d="
M206.039413,151.171295 
	C203.109497,154.738678 200.029602,157.967224 196.875336,161.273727 
	C195.023422,159.169495 193.554871,157.811783 192.457184,156.201309 
	C186.888809,148.031509 185.565399,151.043488 193.597748,142.325119 
	C197.626587,145.113556 201.758011,147.973022 206.039413,151.171295 
z"/>
<path fill="#0D0D0D" opacity="1.000000" stroke="none" 
	d="
M259.033691,356.830444 
	C257.592529,358.402313 256.468048,359.752747 255.343552,361.103149 
	C254.957596,360.931213 254.571625,360.759308 254.185669,360.587372 
	C254.185669,353.264587 253.704498,345.887482 254.520767,338.656860 
	C254.727310,336.827271 259.072235,335.464905 261.809845,333.697845 
	C261.809845,341.050934 261.895660,347.636047 261.701233,354.212921 
	C261.676971,355.034027 260.170197,355.811340 259.033691,356.830444 
z"/>
<path fill="#080808" opacity="1.000000" stroke="none" 
	d="
M301.808594,146.806122 
	C304.156647,145.240250 306.165894,143.825806 308.506622,142.177979 
	C310.531433,144.691147 312.360535,146.961380 314.325134,149.399780 
	C311.293976,153.285431 308.392609,157.004684 304.733398,161.695435 
	C301.643158,157.928131 298.841736,154.512924 295.854523,150.871231 
	C297.444397,149.763123 299.457062,148.360352 301.808594,146.806122 
z"/>
<path fill="#060606" opacity="1.000000" stroke="none" 
	d="
M254.789612,329.860046 
	C249.081329,331.443176 239.604309,328.011993 236.377213,322.705353 
	C241.542831,322.705353 246.212051,322.705353 250.881287,322.705353 
	C255.521042,322.705353 260.160797,322.705353 265.187469,322.705353 
	C263.779510,328.428680 258.414093,327.606293 254.789612,329.860046 
z"/>
<path fill="#131313" opacity="1.000000" stroke="none" 
	d="
M280.600433,243.623703 
	C285.171417,239.171738 289.482117,234.970551 294.260773,230.313309 
	C295.289276,236.398453 295.287842,240.881851 289.378967,243.817139 
	C284.853302,246.065277 280.894135,249.453873 276.299194,252.597809 
	C275.305298,248.201355 277.311157,245.800568 280.600433,243.623703 
z"/>
<path fill="#131313" opacity="1.000000" stroke="none" 
	d="
M214.809143,245.163910 
	C208.400421,242.352570 205.596130,238.074661 207.894409,230.544846 
	C214.152649,237.564789 222.198288,242.478210 226.454102,250.703644 
	C225.959259,251.215927 225.464417,251.728195 224.969574,252.240479 
	C221.679443,249.955429 218.389328,247.670380 214.809143,245.163910 
z"/>
<path fill="#0D0D0D" opacity="1.000000" stroke="none" 
	d="
M175.783539,139.261688 
	C173.738968,137.563354 171.968048,136.096069 170.138916,134.580551 
	C174.275055,132.774292 183.269211,135.021042 187.284668,138.923035 
	C185.890350,140.629410 184.476028,142.360260 182.696426,144.538132 
	C180.392227,142.787079 178.224716,141.139893 175.783539,139.261688 
z"/>
<path fill="#0F1010" opacity="1.000000" stroke="none" 
	d="
M320.347290,135.061829 
	C324.422516,134.427643 328.083099,133.798553 331.743652,133.169479 
	C331.902954,133.425888 332.062256,133.682281 332.221558,133.938675 
	C328.111298,137.469238 324.001068,140.999802 319.557281,144.816849 
	C317.782104,142.803528 316.110138,140.907333 313.923096,138.426926 
	C316.142822,137.185852 318.037750,136.126389 320.347290,135.061829 
z"/>
<path fill="#DEDEDE" opacity="1.000000" stroke="none" 
	d="
M235.864319,305.021973 
	C235.519333,303.156952 235.519333,301.425751 235.519333,299.694580 
	C235.987793,299.605194 236.456253,299.515808 236.924713,299.426422 
	C239.263962,302.326935 241.603210,305.227448 243.942474,308.127960 
	C243.631088,308.556824 243.319687,308.985687 243.008301,309.414551 
	C240.741974,307.994995 238.475632,306.575409 235.864319,305.021973 
z"/>
<path fill="#DEDEDE" opacity="1.000000" stroke="none" 
	d="
M265.354614,305.417725 
	C262.926819,306.960815 260.771942,308.259247 258.617065,309.557678 
	C258.301697,309.187592 257.986359,308.817474 257.670990,308.447357 
	C260.071136,305.406708 262.471283,302.366058 265.083557,299.056671 
	C266.067474,300.448853 267.024445,301.802917 268.064819,303.274963 
	C267.159485,303.980042 266.393494,304.576569 265.354614,305.417725 
z"/>
</svg>